<?xml version="1.0" encoding="utf-8"?>
<!-- Generator: Adobe Illustrator 23.1.1, SVG Export Plug-In . SVG Version: 6.00 Build 0)  -->
<svg version="1.1" id="Capa_1" xmlns="http://www.w3.org/2000/svg" xmlns:xlink="http://www.w3.org/1999/xlink" x="0px" y="0px"
	 viewBox="0 0 120 46" style="enable-background:new 0 0 120 46;" xml:space="preserve">
<style type="text/css">
	.st0{fill:#FFFFFF;}
</style>
<g>
	<g>
		<path class="st0" d="M26.1,18.9V7.1h5.5v1.1h-3.9v4.1h3.5v1h-3.5v4.5h3.9v1.1H26.1z"/>
		<path class="st0" d="M37.1,19.1c-2.7,0-4-1.9-4-4.6c0-2.7,1.4-4.9,4-4.9c0.5,0,0.9,0.1,1.4,0.2V5.4h1.5v13
			C39.4,18.8,38.4,19.1,37.1,19.1z M38.6,10.6c-0.4-0.1-0.8-0.2-1.2-0.2c-2.1,0-2.8,1.8-2.8,3.9c0,2.2,0.7,3.8,2.6,3.8
			c0.6,0,1-0.1,1.3-0.3V10.6z"/>
		<path class="st0" d="M45.9,19.1c-2.2,0-3.4-0.9-3.4-3V9.6H44v6.5c0,1.3,0.6,1.9,1.9,1.9c0.6,0,1.3-0.1,1.6-0.3V9.6h1.5v8.7
			C48.4,18.8,47.1,19.1,45.9,19.1z"/>
		<path class="st0" d="M54.7,19.1c-2.2,0-3.6-2-3.6-4.8s1.4-4.8,3.6-4.8c0.9,0,1.6,0.2,2.1,0.6L56.4,11c-0.4-0.3-0.9-0.5-1.5-0.5
			c-1.5,0-2.3,1.6-2.3,3.7c0,2.1,0.8,3.7,2.3,3.7c0.5,0,1.1-0.2,1.4-0.4l0.4,0.9C56.3,18.8,55.6,19.1,54.7,19.1z"/>
		<path class="st0" d="M61.7,19.1c-2.2,0-3.5-1-3.5-2.8c0-2.2,2.2-3.1,5.2-3.4v-0.6c0-1.3-0.7-1.8-2-1.8c-0.8,0-1.7,0.2-2.3,0.6
			l-0.4-0.9c0.8-0.4,1.8-0.7,2.8-0.7c2,0,3.2,0.9,3.2,3v5.9C64,18.8,62.9,19.1,61.7,19.1z M63.3,13.7c-2.4,0.3-3.7,0.9-3.7,2.6
			c0,1.3,0.8,2,2.2,2c0.6,0,1.2-0.1,1.5-0.3V13.7z"/>
		<path class="st0" d="M70.4,19.1c-2.2,0-3.6-2-3.6-4.8s1.4-4.8,3.6-4.8c0.9,0,1.6,0.2,2.1,0.6L72.1,11c-0.4-0.3-0.9-0.5-1.5-0.5
			c-1.5,0-2.3,1.6-2.3,3.7c0,2.1,0.8,3.7,2.3,3.7c0.5,0,1.1-0.2,1.4-0.4l0.4,0.9C72,18.8,71.3,19.1,70.4,19.1z"/>
		<path class="st0" d="M75.1,7.9c-0.5,0-0.9-0.4-0.9-0.8c0-0.5,0.4-0.8,0.9-0.8c0.5,0,0.9,0.4,0.9,0.8C76.1,7.5,75.6,7.9,75.1,7.9z
			 M74.4,18.9V9.6h1.5v9.2H74.4z"/>
		<path class="st0" d="M81.7,19.1c-2.5,0-3.7-2-3.7-4.8c0-2.8,1.1-4.8,3.7-4.8s3.7,2,3.7,4.8C85.4,17,84.2,19.1,81.7,19.1z
			 M81.7,10.4c-1.6,0-2.1,1.7-2.1,3.8s0.5,3.8,2.1,3.8s2.1-1.8,2.1-3.8S83.3,10.4,81.7,10.4z M81.9,8.6H81l1.3-2.4
			C82.5,6.1,82.8,6,83.1,6c0.3,0,0.6,0.1,0.7,0.4L81.9,8.6z"/>
		<path class="st0" d="M92.7,18.9v-6.4c0-1.4-0.6-2.1-2.1-2.1c-0.6,0-1.1,0.1-1.6,0.3v8.1h-1.5v-8.8c0.9-0.4,2-0.7,3.1-0.7
			c2.5,0,3.6,1.1,3.6,3v6.4H92.7z"/>
		<path class="st0" d="M30.5,34.8c-3.4,0-4.9-3.1-4.9-6.3s1.4-6.3,4.9-6.3c1.1,0,2,0.3,2.7,0.7l-0.6,1.8c-0.4-0.2-0.9-0.4-1.5-0.4
			c-1.8,0-2.4,2.1-2.4,4.2c0,2,0.7,4.2,2.4,4.2c0.6,0,1.1-0.2,1.4-0.4l0.7,1.9C32.5,34.5,31.6,34.8,30.5,34.8z"/>
		<path class="st0" d="M38.4,34.8c-2.9,0-4.3-2.1-4.3-5s1.5-5,4.3-5c2.9,0,4.3,2.1,4.3,5S41.2,34.8,38.4,34.8z M38.4,26.5
			c-1.2,0-1.6,1.4-1.6,3.2c0,1.9,0.4,3.3,1.6,3.3c1.2,0,1.6-1.4,1.6-3.3C39.9,27.9,39.5,26.5,38.4,26.5z"/>
		<path class="st0" d="M49.9,34.6v-6.5c0-1.1-0.4-1.6-1.6-1.6c-0.4,0-0.8,0.1-1.1,0.2v7.9h-2.8v-9.1c1.1-0.5,2.4-0.7,3.9-0.7
			c3,0,4.3,1.2,4.3,3.3v6.5H49.9z"/>
		<path class="st0" d="M58.1,34.8c-1.8,0-2.9-1-2.9-2.9v-5.1h-1V25h1v-2.1l2.8-0.7V25h1.5v1.8H58v5.1c0,0.6,0.3,1,0.9,1
			c0.2,0,0.4,0,0.6-0.1v1.7C59.2,34.7,58.7,34.8,58.1,34.8z"/>
		<path class="st0" d="M62.7,23.5c-0.8,0-1.5-0.6-1.5-1.3c0-0.7,0.7-1.3,1.5-1.3c0.8,0,1.5,0.6,1.5,1.3
			C64.1,22.9,63.5,23.5,62.7,23.5z M61.3,34.6V25H64v9.6H61.3z"/>
		<path class="st0" d="M71.7,34.6v-6.5c0-1.1-0.4-1.6-1.6-1.6c-0.4,0-0.8,0.1-1.1,0.2v7.9h-2.8v-9.1c1.1-0.5,2.4-0.7,3.9-0.7
			c3,0,4.3,1.2,4.3,3.3v6.5H71.7z"/>
		<path class="st0" d="M80.7,34.8c-2.8,0-4.2-1-4.2-3.4V25h2.8v6.6c0,0.9,0.5,1.4,1.4,1.4c0.4,0,0.8-0.1,1.1-0.2V25h2.8v9.1
			C83.8,34.5,82.2,34.8,80.7,34.8z"/>
		<path class="st0" d="M90.6,34.8c-2.8,0-4.2-1-4.2-3.1c0-2.4,2.4-3.1,5.4-3.4v-0.4c0-0.9-0.6-1.3-1.7-1.3c-0.9,0-1.9,0.3-2.6,0.6
			l-0.6-1.6c1-0.4,2.3-0.7,3.6-0.7c2.4,0,3.9,1,3.9,3.5v5.8C93.5,34.5,92.2,34.8,90.6,34.8z M91.7,29.6c-1.9,0.2-2.8,0.8-2.8,2
			c0,1.1,0.6,1.6,1.8,1.6c0.4,0,0.8-0.1,1-0.2V29.6z"/>
	</g>
	<g>
		<path class="st0" d="M39.8,40.5h-0.4l-0.9-3h0.4l0.6,2.1c0,0.2,0.1,0.3,0.1,0.4h0c0-0.1,0-0.3,0.1-0.4l0.6-2.1h0.4L39.8,40.5z"/>
		<path class="st0" d="M41.3,37.7c-0.1,0-0.2-0.1-0.2-0.2c0-0.1,0.1-0.2,0.2-0.2c0.1,0,0.2,0.1,0.2,0.2
			C41.5,37.6,41.4,37.7,41.3,37.7z M41.1,40.5v-2.4h0.4v2.4H41.1z"/>
		<path class="st0" d="M42.9,40.6c-0.6,0-0.9-0.5-0.9-1.2c0-0.7,0.4-1.2,0.9-1.2c0.2,0,0.4,0.1,0.5,0.2l-0.1,0.2
			c-0.1-0.1-0.2-0.1-0.4-0.1c-0.4,0-0.6,0.4-0.6,1c0,0.5,0.2,1,0.6,1c0.1,0,0.3,0,0.4-0.1l0.1,0.2C43.4,40.5,43.2,40.6,42.9,40.6z"
			/>
		<path class="st0" d="M44.1,39.5c0,0.5,0.3,0.8,0.7,0.8c0.2,0,0.4-0.1,0.6-0.1l0.1,0.3c-0.2,0.1-0.4,0.2-0.7,0.2
			c-0.7,0-1.1-0.5-1.1-1.2c0-0.7,0.4-1.2,1-1.2c0.6,0,0.9,0.4,0.9,1.1v0L44.1,39.5z M44.7,38.4c-0.4,0-0.6,0.4-0.6,0.9v0l1.1-0.2
			C45.2,38.6,45.1,38.4,44.7,38.4z"/>
		<path class="st0" d="M47.1,38.4c-0.1,0-0.2,0-0.2,0c-0.1,0-0.2,0-0.3,0.1v2.1h-0.4v-2.3c0.2-0.1,0.5-0.2,0.8-0.2
			c0.1,0,0.2,0,0.2,0L47.1,38.4z"/>
		<path class="st0" d="M48.5,38.4c-0.1,0-0.2,0-0.2,0c-0.1,0-0.2,0-0.3,0.1v2.1h-0.4v-2.3c0.2-0.1,0.5-0.2,0.8-0.2
			c0.1,0,0.2,0,0.2,0L48.5,38.4z"/>
		<path class="st0" d="M49.2,39.5c0,0.5,0.3,0.8,0.7,0.8c0.2,0,0.4-0.1,0.6-0.1l0.1,0.3c-0.2,0.1-0.4,0.2-0.7,0.2
			c-0.7,0-1.1-0.5-1.1-1.2c0-0.7,0.4-1.2,1-1.2c0.6,0,0.9,0.4,0.9,1.1v0L49.2,39.5z M49.7,38.4c-0.4,0-0.6,0.4-0.6,0.9v0l1.1-0.2
			C50.3,38.6,50.1,38.4,49.7,38.4z"/>
		<path class="st0" d="M52,40.6c-0.6,0-0.9-0.5-0.9-1.2c0-0.7,0.4-1.2,0.9-1.2c0.2,0,0.4,0.1,0.5,0.2l-0.1,0.2
			c-0.1-0.1-0.2-0.1-0.4-0.1c-0.4,0-0.6,0.4-0.6,1c0,0.5,0.2,1,0.6,1c0.1,0,0.3,0,0.4-0.1l0.1,0.2C52.4,40.5,52.2,40.6,52,40.6z"/>
		<path class="st0" d="M53.7,40.6c-0.3,0-0.6-0.2-0.6-0.6v-1.6h-0.3v-0.2h0.3v-0.5l0.4-0.1v0.7h0.4v0.2h-0.4V40
			c0,0.2,0.1,0.3,0.3,0.3c0,0,0.1,0,0.1,0v0.2C53.9,40.5,53.8,40.6,53.7,40.6z"/>
		<path class="st0" d="M55.2,40.6c-0.6,0-0.9-0.5-0.9-1.2c0-0.7,0.3-1.2,0.9-1.2c0.6,0,0.9,0.5,0.9,1.2
			C56.2,40.1,55.9,40.6,55.2,40.6z M55.2,38.4c-0.4,0-0.6,0.4-0.6,1c0,0.5,0.1,1,0.6,1s0.6-0.5,0.6-1C55.8,38.8,55.6,38.4,55.2,38.4
			z"/>
		<path class="st0" d="M57.6,38.4c-0.1,0-0.2,0-0.2,0c-0.1,0-0.2,0-0.3,0.1v2.1h-0.4v-2.3c0.2-0.1,0.5-0.2,0.8-0.2
			c0.1,0,0.2,0,0.2,0L57.6,38.4z"/>
		<path class="st0" d="M58.3,37.9h-0.2l0.3-0.6c0.1,0,0.1-0.1,0.2-0.1c0.1,0,0.2,0,0.2,0.1L58.3,37.9z M58.1,40.5v-2.4h0.4v2.4H58.1
			z"/>
		<path class="st0" d="M59.9,40.6c-0.6,0-0.9-0.2-0.9-0.7c0-0.6,0.6-0.8,1.3-0.9v-0.1c0-0.3-0.2-0.5-0.5-0.5c-0.2,0-0.4,0.1-0.6,0.1
			l-0.1-0.2c0.2-0.1,0.5-0.2,0.7-0.2c0.5,0,0.8,0.2,0.8,0.8v1.5C60.5,40.5,60.2,40.6,59.9,40.6z M60.3,39.2c-0.6,0.1-1,0.2-1,0.7
			c0,0.3,0.2,0.5,0.6,0.5c0.1,0,0.3,0,0.4-0.1V39.2z"/>
		<path class="st0" d="M64.2,40.5l-0.3-0.9h-1.1l-0.3,0.9h-0.4l1-3h0.4l1,3H64.2z M63.5,38.2c0-0.1-0.1-0.3-0.1-0.4h0
			c0,0.1-0.1,0.3-0.1,0.4l-0.4,1.1h0.9L63.5,38.2z"/>
		<path class="st0" d="M65.8,40.6c-0.6,0-0.9-0.5-0.9-1.2c0-0.7,0.4-1.2,0.9-1.2c0.2,0,0.4,0.1,0.5,0.2l-0.1,0.2
			c-0.1-0.1-0.2-0.1-0.4-0.1c-0.4,0-0.6,0.4-0.6,1c0,0.5,0.2,1,0.6,1c0.1,0,0.3,0,0.4-0.1l0.1,0.2C66.2,40.5,66,40.6,65.8,40.6z"/>
		<path class="st0" d="M67.6,40.6c-0.6,0-0.9-0.2-0.9-0.7c0-0.6,0.6-0.8,1.3-0.9v-0.1c0-0.3-0.2-0.5-0.5-0.5c-0.2,0-0.4,0.1-0.6,0.1
			l-0.1-0.2c0.2-0.1,0.5-0.2,0.7-0.2c0.5,0,0.8,0.2,0.8,0.8v1.5C68.2,40.5,67.9,40.6,67.6,40.6z M68,39.2c-0.6,0.1-1,0.2-1,0.7
			c0,0.3,0.2,0.5,0.6,0.5c0.1,0,0.3,0,0.4-0.1V39.2z"/>
		<path class="st0" d="M69.9,40.6c-0.7,0-1-0.5-1-1.2c0-0.7,0.4-1.3,1-1.3c0.1,0,0.2,0,0.4,0v-1.1h0.4v3.3
			C70.5,40.5,70.2,40.6,69.9,40.6z M70.3,38.4c-0.1,0-0.2,0-0.3,0c-0.5,0-0.7,0.5-0.7,1c0,0.6,0.2,1,0.7,1c0.2,0,0.3,0,0.3-0.1V38.4
			z"/>
		<path class="st0" d="M71.5,39.5c0,0.5,0.3,0.8,0.7,0.8c0.2,0,0.4-0.1,0.6-0.1l0.1,0.3c-0.2,0.1-0.4,0.2-0.7,0.2
			c-0.7,0-1.1-0.5-1.1-1.2c0-0.7,0.4-1.2,1-1.2c0.6,0,0.9,0.4,0.9,1.1v0L71.5,39.5z M72.1,38.4c-0.4,0-0.6,0.4-0.6,0.9v0l1.1-0.2
			C72.6,38.6,72.5,38.4,72.1,38.4z M72.2,37.9h-0.2l0.3-0.6c0.1,0,0.1-0.1,0.2-0.1c0.1,0,0.2,0,0.2,0.1L72.2,37.9z"/>
		<path class="st0" d="M76.2,40.5v-1.7c0-0.3-0.1-0.5-0.5-0.5c-0.2,0-0.3,0.1-0.5,0.2v1.9h-0.4v-1.7c0-0.3-0.1-0.5-0.5-0.5
			c-0.2,0-0.3,0-0.4,0.1v2.1h-0.4v-2.3c0.2-0.1,0.5-0.2,0.8-0.2c0.4,0,0.6,0.1,0.7,0.3c0.2-0.2,0.4-0.3,0.7-0.3
			c0.6,0,0.8,0.3,0.8,0.8v1.7H76.2z"/>
		<path class="st0" d="M77.4,37.7c-0.1,0-0.2-0.1-0.2-0.2c0-0.1,0.1-0.2,0.2-0.2c0.1,0,0.2,0.1,0.2,0.2
			C77.7,37.6,77.5,37.7,77.4,37.7z M77.2,40.5v-2.4h0.4v2.4H77.2z"/>
		<path class="st0" d="M79.1,40.6c-0.6,0-0.9-0.5-0.9-1.2c0-0.7,0.4-1.2,0.9-1.2c0.2,0,0.4,0.1,0.5,0.2l-0.1,0.2
			c-0.1-0.1-0.2-0.1-0.4-0.1c-0.4,0-0.6,0.4-0.6,1c0,0.5,0.2,1,0.6,1c0.1,0,0.3,0,0.4-0.1l0.1,0.2C79.5,40.5,79.3,40.6,79.1,40.6z"
			/>
		<path class="st0" d="M80.8,40.6c-0.6,0-0.9-0.2-0.9-0.7c0-0.6,0.6-0.8,1.3-0.9v-0.1c0-0.3-0.2-0.5-0.5-0.5c-0.2,0-0.4,0.1-0.6,0.1
			l-0.1-0.2c0.2-0.1,0.5-0.2,0.7-0.2c0.5,0,0.8,0.2,0.8,0.8v1.5C81.4,40.5,81.2,40.6,80.8,40.6z M81.3,39.2c-0.6,0.1-1,0.2-1,0.7
			c0,0.3,0.2,0.5,0.6,0.5c0.1,0,0.3,0,0.4-0.1V39.2z"/>
	</g>
</g>
</svg>
