<?xml version="1.0" encoding="utf-8"?>
<!-- Generator: Adobe Illustrator 23.1.0, SVG Export Plug-In . SVG Version: 6.00 Build 0)  -->
<svg version="1.1" id="Capa_1" xmlns="http://www.w3.org/2000/svg" xmlns:xlink="http://www.w3.org/1999/xlink" x="0px" y="0px"
	 viewBox="0 0 120 46" style="enable-background:new 0 0 120 46;" xml:space="preserve">
<style type="text/css">
	.st0{fill:#FFFFFF;}
</style>
<g>
	<g>
		<g>
			<path class="st0" d="M59.3,13.6c0.6,0.4,0.8,0.8,0.8,1.6c0,1.2-1,1.9-2.5,1.9c-0.8,0-1.7-0.2-2-0.6c-0.1-0.4,0-1.2,0.2-1.6h0.1
				c-0.1,1,0.6,1.8,1.8,1.8c0.8,0,1.3-0.5,1.3-1.1c0-0.4-0.2-0.6-0.7-1l-1.7-1.1c-0.6-0.5-1-1-1-1.7c0.1-1,0.8-1.7,2-1.7
				c0.4,0,0.8,0,1.3,0.1h0.6l-0.1,1.4h-0.1c0-0.6-0.5-1.1-1.3-1.1c-0.7,0-1.2,0.4-1.2,1c0,0.4,0.2,0.6,0.6,0.8L59.3,13.6z"/>
			<path class="st0" d="M65.7,17h-4.9v-0.1h0.1c0.4,0,0.6-0.2,0.6-0.6v-5.3c0-0.4-0.2-0.6-0.6-0.6h-0.1v-0.1h3.6
				c0.4,0,1-0.1,1.1-0.1v1.7h-0.1v-0.1c0-0.6-0.4-1-1-1h-1.6v2.7H64c0.5,0,0.8-0.4,0.8-0.8v-0.1H65v2.1h-0.1v-0.1
				c0-0.5-0.4-0.8-0.8-0.8h-1.3v2.6h1.2c1,0,1.6-0.6,1.8-1.6h0.1L65.7,17z"/>
			<path class="st0" d="M74.7,16.3c0,0.4,0.4,0.6,0.7,0.6h0.1V17h-2.9v-0.1h0.1c0.2,0,0.4-0.2,0.4-0.4l-0.4-3.5L71,16.2
				c0,0-0.4,0.6-0.4,1.1h-0.1l-2.4-4.1l-0.4,3.3c0,0.2,0.1,0.4,0.4,0.4h0.1V17h-2v-0.1h0.1c0.4,0,0.6-0.2,0.7-0.6l0.8-6.1H68
				l2.9,4.8l2.7-4.8h0.1L74.7,16.3z"/>
			<path class="st0" d="M78.6,17h-2.9v-0.1h0.1c0.4,0,0.6-0.2,0.6-0.6v-5.3c0-0.4-0.2-0.6-0.6-0.6h-0.1v-0.1h2.9v0.1h-0.1
				c-0.4,0-0.6,0.2-0.6,0.6v5.3c0,0.4,0.2,0.6,0.6,0.6L78.6,17L78.6,17z"/>
			<path class="st0" d="M86.8,10.3L86.8,10.3l-0.1,0.1c-0.4,0-0.6,0.2-0.6,0.6V16c0,0.7,0.1,1.2,0.1,1.2h-0.1l-4.8-4.5v3.7
				c0,0.4,0.2,0.6,0.6,0.6h0.1V17h-2.9v-0.1h0.1c0.4,0,0.6-0.2,0.6-0.6v-4.9c0-0.7-0.1-1.2-0.1-1.2h0.1l4.8,4.5v-3.7
				c0-0.4-0.2-0.6-0.6-0.6H84v-0.1H86.8z"/>
			<path class="st0" d="M93.2,16.3c0.2,0.4,0.5,0.6,0.8,0.6h0.1V17h-3v-0.1h0.1c0.2,0,0.5-0.2,0.4-0.6l-0.5-1.2h-2.3l-0.5,1.2
				c-0.1,0.4,0.1,0.6,0.4,0.6h0.1V17h-2v-0.1H87c0.2,0,0.6-0.1,0.8-0.5l2.1-4.9c0.1-0.1,0.5-1,0.5-1.2h0.1L93.2,16.3z M90.9,14.8
				l-1-2.3l-1,2.3H90.9z"/>
			<path class="st0" d="M97.5,10.3c1.2,0,2.3,0.5,2.3,1.8c0,0.8-0.5,1.7-1.6,1.8c0.4,0.1,0.7,0.5,1,0.8c0,0,0.6,1,1,1.4
				c0.4,0.5,0.7,0.7,1.2,0.7V17h-1c-1.1,0-1.8-0.2-2.3-1c-0.2-0.4-0.6-1.3-0.8-1.7c-0.2-0.4-0.4-0.6-0.6-0.6v-0.1H97
				c0.5,0,1.1-0.2,1.2-1.1c0-0.1,0-0.2,0-0.5c0-1-0.5-1.3-1.1-1.3c-0.2,0-0.6,0-0.7,0v5.5c0,0.4,0.2,0.6,0.6,0.6h0.1V17h-2.9v-0.1
				h0.1c0.4,0,0.6-0.2,0.6-0.6v-5.3c0-0.4-0.2-0.6-0.6-0.6h-0.1v-0.1H97.5z"/>
			<path class="st0" d="M104,17h-2.9v-0.1h0.1c0.4,0,0.6-0.2,0.6-0.6v-5.3c0-0.4-0.2-0.6-0.6-0.6h-0.1v-0.1h2.9v0.1h-0.1
				c-0.4,0-0.6,0.2-0.6,0.6v5.3c0,0.4,0.2,0.6,0.6,0.6L104,17L104,17z"/>
			<path class="st0" d="M112,13.7c0,2.1-1.4,3.5-3.7,3.5c-2.3,0-3.7-1.3-3.7-3.5s1.4-3.5,3.7-3.5C110.6,10.2,112,11.5,112,13.7z
				 M110.5,13.7c0-1.9-0.8-3-2.1-3s-2.1,1.2-2.1,3c0,1.9,0.8,3,2.1,3C109.6,16.7,110.5,15.6,110.5,13.7z"/>
			<path class="st0" d="M116.7,13.6c0.6,0.4,0.8,0.8,0.8,1.6c0,1.2-1,1.9-2.5,1.9c-0.8,0-1.7-0.2-2-0.6c-0.1-0.4,0-1.2,0.2-1.6h0.1
				c-0.1,1,0.6,1.8,1.8,1.8c0.8,0,1.3-0.5,1.3-1.1c0-0.4-0.2-0.6-0.7-1l-1.7-1.1c-0.6-0.5-1-1-1-1.7c0.1-1,0.8-1.7,2-1.7
				c0.4,0,0.8,0,1.3,0.1h0.6l-0.1,1.4h-0.1c0-0.6-0.5-1.1-1.3-1.1c-0.7,0-1.2,0.4-1.2,1c0,0.4,0.2,0.6,0.6,0.8L116.7,13.6z"/>
		</g>
		<g>
			<g>
				<path class="st0" d="M62.6,19.3L62.6,19.3L62.6,19.3c-0.4,0.1-0.8,0.2-1.1,0.7l-2.6,5.8c-0.1,0.1-0.5,1.1-0.6,1.4h-0.1L54.9,20
					c-0.1-0.4-0.5-0.6-0.8-0.6l0,0v-0.1h3.6v0.1h-0.1c-0.2,0-0.6,0.2-0.5,0.7l1.9,4.5l1.9-4.5c0.2-0.5-0.1-0.7-0.5-0.7h-0.1v-0.1
					H62.6z"/>
				<path class="st0" d="M66.2,27.1h-3.3v-0.1H63c0.4,0,0.7-0.4,0.7-0.7v-6.1c0-0.4-0.4-0.7-0.7-0.7h-0.1v-0.1h3.3v0.1H66
					c-0.4,0-0.7,0.4-0.7,0.7v6.1c0,0.4,0.4,0.7,0.7,0.7L66.2,27.1L66.2,27.1z"/>
				<path class="st0" d="M70.9,19.3c1.3,0,2.6,0.6,2.6,2c0,1-0.6,2-1.8,2.1c0.5,0.1,0.8,0.6,1.1,1c0,0,0.7,1.1,1.1,1.7
					c0.5,0.6,0.8,0.8,1.3,0.8v0.1h-1.1c-1.2,0-2.1-0.2-2.6-1.2c-0.2-0.5-0.7-1.6-1-1.9c-0.2-0.5-0.5-0.7-0.7-0.7v-0.1h0.4
					c0.6,0,1.2-0.4,1.4-1.3c0-0.1,0-0.4,0-0.5c0-1.1-0.6-1.6-1.3-1.6c-0.2,0-0.7,0-0.8,0v6.4c0,0.4,0.4,0.7,0.7,0.7h0.1v0.1h-3.1
					v-0.1h0.1c0.4,0,0.7-0.4,0.7-0.7v-6.1c0-0.4-0.4-0.7-0.7-0.7h-0.1v-0.1L70.9,19.3z"/>
				<path class="st0" d="M81.7,21.1L81.7,21.1L81.6,21c0-0.7-0.5-1.1-1.1-1.1h-1.4v6.4c0,0.4,0.4,0.7,0.7,0.7h0.1v0.1h-3.3v-0.1h0.1
					c0.4,0,0.7-0.4,0.7-0.7v-6.6H76c-0.7,0-1.1,0.5-1.1,1.1V21h-0.1v-1.9c0.2,0.1,0.8,0.2,1.3,0.2h4.4c0.5,0,1.1-0.1,1.3-0.2
					L81.7,21.1z"/>
				<path class="st0" d="M90.5,19.3L90.5,19.3l-0.1,0.1c-0.4,0-0.6,0.2-0.6,0.5v4.3c0,1.8-1.2,3-3.2,3c-2.4,0-3.6-1.2-3.6-3v-4.3
					c0-0.4-0.2-0.6-0.6-0.6h-0.2v-0.1h3.2v0.2h-0.2c-0.4,0-0.6,0.2-0.6,0.5v4.3c0,1.6,0.8,2.5,2.1,2.5c1.3,0,2.1-1,2.1-2.4v-4.4
					c0-0.4-0.2-0.5-0.6-0.5H88v-0.1H90.5z"/>
				<path class="st0" d="M97.7,26.3c0.2,0.5,0.6,0.6,1,0.6h0.1v0.1h-3.6v-0.1h0.1c0.2,0,0.6-0.2,0.5-0.7l-0.6-1.3h-2.6L92,26.2
					c-0.2,0.5,0.1,0.7,0.5,0.7h0.1v0.1h-2.4v-0.1h0.1c0.4,0,0.7-0.2,1-0.6l2.5-5.7c0.1-0.1,0.5-1.1,0.6-1.4h0.1L97.7,26.3z M95,24.4
					l-1.1-2.7l-1.2,2.7H95z"/>
				<path class="st0" d="M104.6,27.1h-5.7v-0.1H99c0.4,0,0.7-0.4,0.7-0.7v-6.1c0-0.4-0.4-0.7-0.7-0.7h-0.1v-0.1h3.3v0.1h-0.1
					c-0.4,0-0.7,0.4-0.7,0.7v6.4h1.4c1.1,0,1.8-0.7,2.1-1.8h0.1L104.6,27.1z"/>
				<path class="st0" d="M111.3,27.1h-5.7v-0.1h0.1c0.4,0,0.7-0.4,0.7-0.7V20c0-0.4-0.4-0.7-0.7-0.7h-0.1v-0.1h4.3
					c0.5,0,1.1-0.1,1.3-0.2v1.9h-0.1v-0.1c0-0.7-0.4-1.1-1.1-1.1h-1.9V23h1.4c0.6,0,1-0.4,1-1v-0.1h0.1v2.5h-0.1v-0.1
					c0-0.5-0.4-1-1-1h-1.4v3.2h1.4c1.1,0,1.8-0.7,2.1-1.8h0.1L111.3,27.1z"/>
				<path class="st0" d="M117,23.1c0.7,0.5,1.1,1,1,1.8c-0.1,1.4-1.2,2.3-3,2.3c-1,0-1.9-0.2-2.3-0.7c-0.2-0.5,0-1.4,0.2-1.9h0.1
					c-0.1,1.2,0.7,2.1,2,2c1,0,1.6-0.6,1.6-1.2c0-0.5-0.2-0.7-0.8-1.2l-1.9-1.3c-0.7-0.5-1.2-1.2-1.1-2c0.1-1.2,1-1.9,2.4-1.9
					c0.4,0,1,0,1.6,0.1h0.7l-0.1,1.7h-0.1c0-0.7-0.6-1.3-1.6-1.3c-0.8,0-1.4,0.5-1.4,1.1c0,0.5,0.4,0.7,0.7,1.1L117,23.1z"/>
			</g>
		</g>
		<g>
			<path class="st0" d="M57.5,29.4c1.8,0,2.9,1,2.9,2.5c0,1.6-1.1,2.5-2.9,2.5h-2.9v-0.1h0.1c0.2,0,0.5-0.2,0.5-0.5v-4.1
				c0-0.2-0.2-0.5-0.5-0.5h-0.1v-0.1L57.5,29.4z M56.4,34.2h1c1.1,0,1.7-0.8,1.7-2.1c0-1.4-0.6-2.1-1.7-2.1h-1V34.2z"/>
			<path class="st0" d="M64.9,34.6L64.9,34.6h-3.9v-0.1h0.1c0.2,0,0.5-0.2,0.5-0.5v-4.1c0-0.2-0.2-0.5-0.5-0.5h-0.1v-0.1h3
				c0.4,0,0.7-0.1,0.8-0.1v1.3h-0.1v-0.1c0-0.5-0.2-0.8-0.7-0.8h-1.2v2h1c0.4,0,0.6-0.2,0.6-0.7l0,0h0.1v1.8h-0.1v-0.1
				c0-0.4-0.2-0.6-0.6-0.7h-1v2h1.1c0.7,0,1.2-0.5,1.4-1.2h0.1L64.9,34.6z"/>
			<path class="st0" d="M71.7,34.6L71.7,34.6h-3.9v-0.1h0.1c0.2,0,0.5-0.2,0.5-0.5v-4.1c0-0.2-0.2-0.5-0.5-0.5h-0.1v-0.1h3
				c0.4,0,0.7-0.1,0.8-0.1v1.3h-0.1v-0.1c0-0.5-0.2-0.8-0.7-0.8h-1.2v2h1c0.4,0,0.6-0.2,0.6-0.7l0,0h0.1v1.8h-0.1v-0.1
				c0-0.4-0.2-0.6-0.6-0.7h-1v2h1.1c0.7,0,1.2-0.5,1.4-1.2h0.1L71.7,34.6z"/>
			<path class="st0" d="M77.9,34.5L77.9,34.5l-2.6,0.1v-0.1h0.1c0.2,0,0.4-0.2,0.2-0.5l-1-1.4L73.6,34c-0.1,0.2,0,0.5,0.2,0.5H74
				v0.1H72v-0.1h0.1c0.2,0,0.6-0.1,0.7-0.4l1.6-2L73,29.9c-0.1-0.2-0.5-0.4-0.7-0.4h-0.1v-0.1h2.6v0.1h-0.1c-0.2,0-0.4,0.2-0.2,0.5
				l1,1.4l1-1.4c0.1-0.2,0-0.5-0.2-0.5H76v-0.1h1.8v0.1h-0.1c-0.2,0-0.6,0.1-0.7,0.4l-1.3,1.9l1.4,2.3
				C77.2,34.3,77.5,34.5,77.9,34.5L77.9,34.5z"/>
			<path class="st0" d="M82.8,32.4l0.1,1.3c-0.4,0.5-1.1,1-2.1,1c-1.9,0-3.1-1-3.1-2.6c0-1.7,1.2-2.6,3.1-2.6c0.7,0,1.4,0.1,1.9,0.4
				v1.3h0c-0.2-1.1-1-1.4-1.8-1.4c-1.2,0-1.8,1-1.8,2.3c0,1.4,0.6,2.3,1.8,2.4C82,34.3,82.5,33.9,82.8,32.4L82.8,32.4z"/>
			<path class="st0" d="M87.4,34.6L87.4,34.6h-3.9v-0.1h0.1c0.2,0,0.5-0.2,0.5-0.5v-4.1c0-0.2-0.2-0.5-0.5-0.5h-0.1v-0.1h3
				c0.4,0,0.7-0.1,0.8-0.1v1.3h-0.1v-0.1c0-0.5-0.2-0.8-0.7-0.8h-1.2v2h1c0.4,0,0.6-0.2,0.6-0.7l0,0H87v1.8h-0.1v-0.1
				c0-0.4-0.2-0.6-0.6-0.7h-1v2h1.1c0.7,0,1.2-0.5,1.4-1.2h0.1L87.4,34.6z"/>
			<path class="st0" d="M92.2,34.6h-3.9v-0.1h0.1c0.2,0,0.5-0.2,0.5-0.5v-4.1c0-0.2-0.2-0.5-0.5-0.5h-0.1v-0.1h2.4v0.1h-0.1
				c-0.2,0-0.5,0.2-0.5,0.5v4.2h1c0.7,0,1.2-0.5,1.4-1.2h0.1L92.2,34.6z"/>
			<path class="st0" d="M96.8,34.6L96.8,34.6h-3.9v-0.1h0.1c0.2,0,0.5-0.2,0.5-0.5v-4.1c0-0.2-0.2-0.5-0.5-0.5h-0.1v-0.1h3
				c0.4,0,0.7-0.1,0.8-0.1v1.3h-0.1v-0.1c0-0.5-0.2-0.8-0.7-0.8h-1.2v2h1c0.4,0,0.6-0.2,0.6-0.7l0,0h0.1v1.8h-0.1v-0.1
				c0-0.4-0.2-0.6-0.6-0.7h-1v2h1.1c0.7,0,1.2-0.5,1.4-1.2h0.1L96.8,34.6z"/>
			<path class="st0" d="M103.7,29.4L103.7,29.4l-0.1,0.1c-0.2,0-0.5,0.2-0.5,0.5v3.7c0,0.6,0.1,1,0.1,1h-0.1l-3.9-3.5V34
				c0,0.2,0.2,0.5,0.5,0.5h0.1v0.1h-2.4v-0.1h0.1c0.2,0,0.5-0.2,0.5-0.5v-3.7c0-0.6-0.1-1-0.1-1h0.1l3.8,3.5V30
				c0-0.2-0.2-0.5-0.5-0.5h-0.1v-0.1C101.2,29.4,103.7,29.4,103.7,29.4z"/>
			<path class="st0" d="M109.2,32.4l0.1,1.3c-0.4,0.5-1.1,1-2.1,1c-1.9,0-3.1-1-3.1-2.6c0-1.7,1.2-2.6,3.1-2.6
				c0.7,0,1.4,0.1,1.9,0.4v1.3h-0.1c-0.2-1.1-1-1.4-1.8-1.4c-1.2,0-1.8,1-1.8,2.3c0,1.4,0.6,2.3,1.8,2.4
				C108.3,34.3,108.8,33.9,109.2,32.4L109.2,32.4z"/>
			<path class="st0" d="M109.9,34.6L109.9,34.6L109.9,34.6c0.4-0.1,0.6-0.2,0.6-0.5V30c0-0.2-0.2-0.5-0.5-0.5h-0.1v-0.1h2.4v0.1
				h-0.1c-0.2,0-0.5,0.2-0.5,0.5v4.1c0,0.2,0.2,0.5,0.5,0.5h0.1v0.1h-2.4V34.6z"/>
			<path class="st0" d="M117.5,34c0.1,0.4,0.5,0.5,0.7,0.5h0.1v0.1h-2.5v-0.1h0.1c0.2,0,0.4-0.1,0.2-0.5l-0.4-0.7h-1.8l-0.4,0.8
				c-0.1,0.2,0.1,0.5,0.2,0.5h0.1v0.1h-1.7v-0.1h0.1c0.2,0,0.5-0.1,0.6-0.5l1.8-3.7c0-0.1,0.4-0.8,0.4-1.1h0.1L117.5,34z
				 M115.6,32.9l-0.7-1.8l-0.7,1.8H115.6z"/>
		</g>
	</g>
	<rect x="45.2" y="7" class="st0" width="0.4" height="32"/>
	<g>
		<g>
			<g>
				<g>
					<path class="st0" d="M3.2,28.4c0.8,1.6,4.3,2,5.1,0.2C6.8,27.3,4.6,28,3.2,28.4z"/>
				</g>
				<g>
					<path class="st0" d="M1.7,22.3c0.4,1.4,3,2.5,4.1,1.3C4.7,22.3,2.9,22.3,1.7,22.3z"/>
				</g>
				<g>
					<path class="st0" d="M1.9,18.7c-0.2,1.4,1.8,3.2,3.2,2.4C4.6,19.7,2.9,19.1,1.9,18.7z"/>
				</g>
				<g>
					<path class="st0" d="M2.2,15.7c-0.4,1.4,1.6,3.5,3.1,2.7C5,16.9,3.3,16.2,2.2,15.7z"/>
				</g>
				<g>
					<path class="st0" d="M3.7,12.4c-1,1.1-0.2,3.8,1.4,3.8C5.6,14.5,4.4,13.2,3.7,12.4z"/>
				</g>
				<g>
					<path class="st0" d="M5.1,10.1c-0.8,0.8-0.5,3.1,0.8,3.3C6.4,12.1,5.6,10.9,5.1,10.1z"/>
				</g>
				<g>
					<path class="st0" d="M10,11.8c0.1,1.2-1.7,2.6-2.9,1.8C7.6,12.4,9,12,10,11.8z"/>
				</g>
				<g>
					<path class="st0" d="M9.6,13.9c0.1,1.3-1.8,3-3.1,2.1C7,14.5,8.7,14.2,9.6,13.9z"/>
				</g>
				<g>
					<path class="st0" d="M9.7,16.6c0,1.3-2.1,2.9-3.3,1.9C7,17,8.7,16.8,9.7,16.6z"/>
				</g>
				<g>
					<path class="st0" d="M10.1,18.6c0.1,1.4-1.9,3.2-3.3,2.4C7.4,19.4,9.1,18.9,10.1,18.6z"/>
				</g>
				<g>
					<path class="st0" d="M10.9,21.1c0.2,1.4-1.8,3.2-3.3,2.4C7.9,21.9,9.7,21.4,10.9,21.1z"/>
				</g>
				<g>
					<path class="st0" d="M2.6,25.5c0.5,1.6,3.6,2.5,4.7,1.1C6,25,3.9,25.4,2.6,25.5z"/>
				</g>
				<g>
					<path class="st0" d="M11.5,22.6c0.7,1.6-1,4.4-2.7,3.9C8.7,24.7,10.5,23.5,11.5,22.6z"/>
				</g>
				<g>
					<path class="st0" d="M12.8,24.7c1.1,1.3,0.2,4.5-1.7,4.5C10.6,27.3,12,25.7,12.8,24.7z"/>
				</g>
				<g>
					<path class="st0" d="M4.6,31.8c1.3,1.7,5.3,1.4,5.8-0.8C8.3,29.9,6,31.1,4.6,31.8z"/>
				</g>
				<g>
					<path class="st0" d="M7.2,35.2c1.7,1.2,5.5-0.1,5.4-2.5C10.3,32.2,8.4,34.1,7.2,35.2z"/>
				</g>
				<g>
					<path class="st0" d="M14.4,26.5c1.3,1.1,1.1,4.4-0.8,4.8C12.7,29.4,13.8,27.7,14.4,26.5z"/>
				</g>
				<g>
					<path class="st0" d="M9.7,8.4C8.2,8.2,6,10.6,7,12.1C8.8,11.7,9.4,9.6,9.7,8.4z"/>
				</g>
				<g>
					<g>
						<path class="st0" d="M20.4,34.7C5.4,33.1,2.9,17,7.6,10.7l0.4,0.2c-4.5,6.2-2,21.4,12.4,22.8V34.7z"/>
					</g>
				</g>
			</g>
			<g>
				<g>
					<path class="st0" d="M33.6,28.4c-0.8,1.6-4.3,2-5.1,0.2C30,27.3,32.2,28,33.6,28.4z"/>
				</g>
				<g>
					<path class="st0" d="M35,22.3c-0.4,1.4-3,2.5-4.1,1.3C31.9,22.3,33.9,22.3,35,22.3z"/>
				</g>
				<g>
					<path class="st0" d="M34.8,18.7c0.2,1.4-1.8,3.2-3.2,2.4C32.1,19.7,33.9,19.1,34.8,18.7z"/>
				</g>
				<g>
					<path class="st0" d="M34.6,15.7c0.4,1.4-1.6,3.5-3.1,2.7C31.8,16.9,33.5,16.2,34.6,15.7z"/>
				</g>
				<g>
					<path class="st0" d="M33.1,12.4c1,1.1,0.2,3.8-1.4,3.8C31.1,14.5,32.4,13.2,33.1,12.4z"/>
				</g>
				<g>
					<path class="st0" d="M31.7,10.1c0.8,0.8,0.5,3.1-0.8,3.3C30.4,12.1,31.2,10.9,31.7,10.1z"/>
				</g>
				<g>
					<path class="st0" d="M26.8,11.8c-0.1,1.2,1.7,2.6,2.9,1.8C29.2,12.4,27.8,12,26.8,11.8z"/>
				</g>
				<g>
					<path class="st0" d="M27.2,13.9c-0.1,1.3,1.8,3,3.1,2.1C29.8,14.5,28.1,14.2,27.2,13.9z"/>
				</g>
				<g>
					<path class="st0" d="M27,16.6c0,1.3,2.1,2.9,3.3,1.9C29.8,17,28.1,16.8,27,16.6z"/>
				</g>
				<g>
					<path class="st0" d="M26.6,18.6c-0.1,1.4,1.9,3.2,3.2,2.4C29.4,19.4,27.6,18.9,26.6,18.6z"/>
				</g>
				<g>
					<path class="st0" d="M25.9,21.1c-0.2,1.4,1.8,3.2,3.3,2.4C28.8,21.9,27,21.4,25.9,21.1z"/>
				</g>
				<g>
					<path class="st0" d="M34.1,25.5c-0.5,1.6-3.6,2.5-4.7,1.1C30.7,25,32.9,25.4,34.1,25.5z"/>
				</g>
				<g>
					<path class="st0" d="M25.3,22.6c-0.7,1.6,1,4.4,2.7,3.9C28.1,24.7,26.3,23.5,25.3,22.6z"/>
				</g>
				<g>
					<path class="st0" d="M23.9,24.7c-1.1,1.3-0.2,4.5,1.7,4.5C26.2,27.3,24.8,25.7,23.9,24.7z"/>
				</g>
				<g>
					<path class="st0" d="M32.2,31.8c-1.3,1.7-5.3,1.4-5.8-0.8C28.5,29.9,30.7,31.1,32.2,31.8z"/>
				</g>
				<g>
					<path class="st0" d="M29.6,35.2c-1.7,1.2-5.5-0.1-5.4-2.5C26.5,32.2,28.4,34.1,29.6,35.2z"/>
				</g>
				<g>
					<path class="st0" d="M22.4,26.5c-1.3,1.1-1.1,4.4,0.8,4.8C24.1,29.4,23,27.7,22.4,26.5z"/>
				</g>
				<g>
					<path class="st0" d="M26.9,8.4c1.6-0.2,3.7,2.1,2.7,3.7C28,11.7,27.4,9.6,26.9,8.4z"/>
				</g>
				<g>
					<g>
						<g>
							<path class="st0" d="M16.3,34.7c15-1.6,17.5-17.7,12.9-24l-0.4,0.2c4.5,6.2,2,21.4-12.4,22.8L16.3,34.7z"/>
						</g>
					</g>
				</g>
			</g>
		</g>
	</g>
</g>
</svg>
